<?xml version="1.0" encoding="iso-8859-1"?>
<!-- Generator: Adobe Illustrator 16.0.0, SVG Export Plug-In . SVG Version: 6.00 Build 0)  -->
<!DOCTYPE svg PUBLIC "-//W3C//DTD SVG 1.1//EN" "http://www.w3.org/Graphics/SVG/1.1/DTD/svg11.dtd">
<svg version="1.1" id="Capa_1" xmlns="http://www.w3.org/2000/svg" xmlns:xlink="http://www.w3.org/1999/xlink" x="0px" y="0px"
	 width="94.666px" height="94.666px" viewBox="0 0 94.666 94.666" style="enable-background:new 0 0 94.666 94.666;"
	 xml:space="preserve">
<g>
	<path d="M76.923,35.406h-3.128v-8.945C73.795,11.871,61.924,0,47.333,0S20.871,11.871,20.871,26.461v8.945h-3.128
		c-1.104,0-2,0.896-2,2v55.26c0,1.104,0.896,2,2,2h59.18c1.104,0,2-0.896,2-2v-55.26C78.923,36.302,78.028,35.406,76.923,35.406z
		 M47.333,11.181c8.426,0,15.281,6.854,15.281,15.28v8.945H32.052v-8.945C32.052,18.036,38.907,11.181,47.333,11.181z"/>
</g>
<g>
</g>
<g>
</g>
<g>
</g>
<g>
</g>
<g>
</g>
<g>
</g>
<g>
</g>
<g>
</g>
<g>
</g>
<g>
</g>
<g>
</g>
<g>
</g>
<g>
</g>
<g>
</g>
<g>
</g>
</svg>
